<svg width="30" height="30" viewBox="0 0 30 30" fill="none" xmlns="http://www.w3.org/2000/svg">
<g clip-path="url(#clip0_629_78)">
<path fill-rule="evenodd" clip-rule="evenodd" d="M22.0588 18.3333H20.6647L20.1706 17.8833C22.2882 15.5499 23.3824 12.3666 22.7824 8.98328C21.9529 4.34994 17.8588 0.649944 12.9177 0.0832774C5.45295 -0.783389 -0.829406 5.14994 0.0882406 12.1999C0.688241 16.8666 4.60589 20.7333 9.51177 21.5166C13.0941 22.0833 16.4647 21.0499 18.9353 19.0499L19.4118 19.5166V20.8333L26.9118 27.9166C27.6353 28.5999 28.8177 28.5999 29.5412 27.9166C30.2647 27.2333 30.2647 26.1166 29.5412 25.4333L22.0588 18.3333ZM11.4706 18.3333C7.07648 18.3333 3.52942 14.9833 3.52942 10.8333C3.52942 6.68328 7.07648 3.33328 11.4706 3.33328C15.8647 3.33328 19.4118 6.68328 19.4118 10.8333C19.4118 14.9833 15.8647 18.3333 11.4706 18.3333Z" fill="#C4C4C4"/>
</g>
<defs>
<clipPath id="clip0_629_78">
<rect width="30" height="30" fill="white"/>
</clipPath>
</defs>
</svg>
